<svg xmlns="http://www.w3.org/2000/svg" viewBox="0 0 150 150" preserveAspectRatio="none">
    <!--polygon points="0,0 100,0 100,50 0,50" style="fill:#01b6ef;" /-->
    <!--polygon points="0,0 50,0 0,10" style="fill:#222c37;" /-->
    <path style="fill:#555555;" d="M 1 9 L 5 1 L 9 9 Z" />
    <polygon style="fill:#ffffff;" points="0,0 100,0 100,100 0,100, 0,0" />
    <polygon style="fill:#0000ff;" points="25,25 75,25 75,75 25,75, 25,25" />
    <!--path style="fill:#165498;" d="m 101.53197,50.892582 9.87468,20.508952 30.38363,-14.432224 -28.86445,22.028131 0.50639,21.015349 15.69821,9.11509 20.76215,-13.672639 5.06394,-21.774935 1.26598,18.230178 25.57289,-6.836315 -20.25575,12.15345 17.47059,6.836321 -23.04092,-1.77238 -23.04092,11.39386 0.50639,19.49616 17.72379,9.11509 21.26854,-8.35549 -15.44502,12.65984 15.44502,8.86189 -17.47059,-4.05115 2.78517,17.97699 -8.8619,-15.95141 -15.69821,-14.17903 -14.68542,13.92583 v 16.711 l 12.15346,14.68542 -15.95141,-11.14067 -4.55755,16.9642 -3.79795,-15.44501 -10.887469,15.19181 6.076729,-18.73657 3.79795,-17.72378 -16.710996,-9.36829 -15.951406,13.16624 -2.025576,26.83887 -4.557543,-18.98977 -14.179029,15.44502 8.608695,-19.24297 -21.774935,4.81074 24.306905,-11.64706 18.230178,-15.19181 0.506394,-21.52174 -20.762148,-12.91305 -12.659847,17.2174 6.836318,-19.24297 -17.21739,-7.849104 22.028131,4.810744 2.025576,-20.002561 5.570334,20.508951 18.230178,10.12788 18.230181,-10.887471 0.50639,-19.242966 -21.521737,-16.4578 19.749357,9.368287 z"/-->
    <polygon style="fill:#2878BA;" points="101.53197,50.892582 9.87468,20.508952 30.38363,-14.432224 -28.86445,22.028131 0.50639,21.015349 15.69821,9.11509 20.76215,-13.672639"/>

    <polygon style="fill:#ff0000;" points="225,75 150,225 0,150 150,75 225,225 75,150 0,225 75,0 225,75 150,225 0,150 150,75 225,225 75,150 0,225"/>

    <!-- 5.06394,-21.774935 1.26598,18.230178 25.57289,-6.836315 -20.25575,12.15345 17.47059,6.836321 -23.04092,-1.77238 -23.04092,11.39386 0.50639,19.49616 17.72379,9.11509 21.26854,-8.35549 -15.44502,12.65984 15.44502,8.86189 -17.47059,-4.05115 2.78517,17.97699 -8.8619,-15.95141 -15.69821,-14.17903 -14.68542,13.92583 12.15346,14.68542 -15.95141,-11.14067 -4.55755,16.9642 -3.79795,-15.44501 -10.887469,15.19181 6.076729,-18.73657 3.79795,-17.72378 -16.710996,-9.36829 -15.951406,13.16624 -2.025576,26.83887 -4.557543,-18.98977 -14.179029,15.44502 8.608695,-19.24297 -21.774935,4.81074 24.306905,-11.64706 18.230178,-15.19181 0.506394,-21.52174 -20.762148,-12.91305 -12.659847,17.2174 6.836318,-19.24297 -17.21739,-7.849104 22.028131,4.810744 2.025576,-20.002561 5.570334,20.508951 18.230178,10.12788 18.230181,-10.887471 0.50639,-19.242966 -21.521737,-16.4578 19.749357,9.368287"/-->
</svg>